<?xml version="1.0" encoding="UTF-8" standalone="no"?>
<svg
   version="1.1"
   width="24"
   height="24"
   viewBox="0 0 24 24"
   id="svg4"
   sodipodi:docname="key.svg"
   inkscape:export-filename="/home/zephyrus/python_projects/Reminiscor/src/Fonts/key.png"
   inkscape:export-xdpi="192"
   inkscape:export-ydpi="192"
   inkscape:version="1.1.2 (0a00cf5339, 2022-02-04)"
   xmlns:inkscape="http://www.inkscape.org/namespaces/inkscape"
   xmlns:sodipodi="http://sodipodi.sourceforge.net/DTD/sodipodi-0.dtd"
   xmlns="http://www.w3.org/2000/svg"
   xmlns:svg="http://www.w3.org/2000/svg">
  <defs
     id="defs8" />
  <sodipodi:namedview
     id="namedview6"
     pagecolor="#ffffff"
     bordercolor="#666666"
     borderopacity="1.0"
     inkscape:pageshadow="2"
     inkscape:pageopacity="0.0"
     inkscape:pagecheckerboard="0"
     showgrid="false"
     inkscape:snap-global="true"
     inkscape:zoom="34.625"
     inkscape:cx="12"
     inkscape:cy="9.6750903"
     inkscape:window-width="910"
     inkscape:window-height="1032"
     inkscape:window-x="10"
     inkscape:window-y="32"
     inkscape:window-maximized="0"
     inkscape:current-layer="svg4" />
  <path
     d="m 7,14 c -1.1,0 -2,-0.9 -2,-2 0,-1.1 0.9,-2 2,-2 1.1,0 2,0.9 2,2 0,1.1 -0.9,2 -2,2 m 5.6,-4 C 11.8,7.7 9.5999999,6 7,6 3.7,6 1,8.7 1,12 c 0,3.3 2.7,6 6,6 2.5999999,0 4.8,-1.7 5.6,-4 H 16 v 4 h 4 v -4 h 3 v -4 z"
     id="path2"
     style="fill:#00abae;fill-opacity:1;stroke-width:1"
     inkscape:export-filename="/home/zephyrus/python_projects/Reminiscor/src/UI/password-icon.png"
     inkscape:export-xdpi="384"
     inkscape:export-ydpi="384" />
</svg>
